<svg width="32" height="32" viewBox="0 0 32 32" fill="none" xmlns="http://www.w3.org/2000/svg">
<g clip-path="url(#clip0_1_435)">
<path d="M22.5378 15.7848C22.4627 15.4681 22.2302 15.2135 21.9217 15.111L17.3221 13.5775L20.5887 7.04434C20.7937 6.63328 20.6711 6.13341 20.2984 5.86422C19.924 5.59597 19.4113 5.63628 19.0872 5.96215L9.71218 15.3372C9.48236 15.567 9.38805 15.8993 9.46224 16.2152C9.5373 16.5319 9.76986 16.7865 10.0784 16.889L14.678 18.4225L11.4114 24.9557C11.2063 25.3667 11.329 25.8666 11.7016 26.1358C12.0748 26.4032 12.5865 26.3641 12.9129 26.0378L22.2879 16.6628C22.5177 16.433 22.612 16.1007 22.5378 15.7848Z" fill="url(#paint0_linear_1_435)"/>
<path d="M16 0C11.2419 0 6.74756 2.21287 3.75 5.78306V4.75C3.75 4.23181 3.33069 3.8125 2.8125 3.8125C2.29431 3.8125 1.875 4.23181 1.875 4.75V8.73256C1.875 9.62725 3.03062 9.75531 2.8125 9.67006C2.83175 9.67006 2.85094 9.66913 2.87019 9.66825L6.62019 9.43569C7.13744 9.40362 7.53025 8.95869 7.49819 8.44231C7.46613 7.92594 7.01481 7.53687 6.50481 7.56431L4.60519 7.68244C7.23644 4.10319 11.4937 1.875 16 1.875C23.7545 1.875 30.125 8.2455 30.125 16C30.125 16.5182 30.5443 16.9375 31.0625 16.9375C31.5807 16.9375 32 16.5182 32 16C32 7.21187 24.7881 0 16 0Z" fill="url(#paint1_linear_1_435)"/>
<path d="M29.1298 22.3318L25.3798 22.5643C24.8626 22.5964 24.4697 23.0413 24.5018 23.5577C24.5339 24.0741 24.9953 24.4678 25.4952 24.4357L27.3948 24.3176C24.7636 27.8968 20.5063 30.125 16 30.125C8.2455 30.125 1.875 23.7545 1.875 16C1.875 15.4818 1.45569 15.0625 0.9375 15.0625C0.419312 15.0625 0 15.4818 0 16C0 24.7881 7.21187 32 16 32C20.7581 32 25.2524 29.7871 28.25 26.2169V27.25C28.25 27.7682 28.6693 28.1875 29.1875 28.1875C29.7057 28.1875 30.125 27.7682 30.125 27.25V23.2674C30.125 22.7524 29.6312 22.3035 29.1298 22.3318Z" fill="url(#paint2_linear_1_435)"/>
</g>
<defs>
<linearGradient id="paint0_linear_1_435" x1="9.43149" y1="15.9987" x2="22.5684" y2="15.9532" gradientUnits="userSpaceOnUse">
<stop stop-color="#036A35"/>
<stop offset="1" stop-color="#94CC23"/>
</linearGradient>
<linearGradient id="paint1_linear_1_435" x1="1.86149" y1="8.46779" x2="32.0107" y2="8.17571" gradientUnits="userSpaceOnUse">
<stop stop-color="#036A35"/>
<stop offset="1" stop-color="#94CC23"/>
</linearGradient>
<linearGradient id="paint2_linear_1_435" x1="-0.0135079" y1="23.5303" x2="30.1357" y2="23.2382" gradientUnits="userSpaceOnUse">
<stop stop-color="#036A35"/>
<stop offset="1" stop-color="#94CC23"/>
</linearGradient>
<clipPath id="clip0_1_435">
<rect width="32" height="32" fill="white"/>
</clipPath>
</defs>
</svg>
