<svg width="12" height="16" viewBox="0 0 12 16" fill="none" xmlns="http://www.w3.org/2000/svg">
<path d="M6 0.5C4.54131 0.5 3.14236 1.07946 2.11091 2.11091C1.07946 3.14236 0.5 4.54131 0.5 6C0.5 8.905 5.4 15.05 5.61 15.315C5.65685 15.3734 5.71622 15.4205 5.78372 15.4529C5.85122 15.4853 5.92513 15.5021 6 15.5021C6.07487 15.5021 6.14878 15.4853 6.21628 15.4529C6.28378 15.4205 6.34315 15.3734 6.39 15.315C6.6 15.05 11.5 8.905 11.5 6C11.5 4.54131 10.9205 3.14236 9.88909 2.11091C8.85764 1.07946 7.45869 0.5 6 0.5ZM6 7.5C5.60444 7.5 5.21776 7.3827 4.88886 7.16294C4.55996 6.94318 4.30362 6.63082 4.15224 6.26537C4.00087 5.89991 3.96126 5.49778 4.03843 5.10982C4.1156 4.72186 4.30608 4.36549 4.58579 4.08579C4.86549 3.80608 5.22186 3.6156 5.60982 3.53843C5.99778 3.46126 6.39991 3.50087 6.76537 3.65224C7.13082 3.80362 7.44318 4.05996 7.66294 4.38886C7.8827 4.71776 8 5.10444 8 5.5C8 6.03043 7.78929 6.53914 7.41421 6.91421C7.03914 7.28929 6.53043 7.5 6 7.5Z" fill="url(#paint0_linear_1_333)"/>
<defs>
<linearGradient id="paint0_linear_1_333" x1="0.495068" y1="8.0002" x2="11.5048" y2="7.95623" gradientUnits="userSpaceOnUse">
<stop stop-color="#036A35"/>
<stop offset="1" stop-color="#94CC23"/>
</linearGradient>
</defs>
</svg>
