<svg width="32" height="32" viewBox="0 0 32 32" fill="none" xmlns="http://www.w3.org/2000/svg">
<g clip-path="url(#clip0_1_621)">
<path d="M7.72394 17.6392L7.724 17.6395C7.74381 17.6195 7.7425 17.6207 7.72394 17.6392Z" fill="url(#paint0_linear_1_621)"/>
<path d="M31.2907 13.2162L29.6994 12.8336C29.3534 11.3231 28.7575 9.88777 27.9245 8.55314L28.7309 7.19927C28.9507 6.83039 28.8911 6.35983 28.5881 6.05683L25.9453 3.41402C25.6423 3.11195 25.1727 3.05152 24.8028 3.2712L23.449 4.07764C22.1143 3.24464 20.679 2.6487 19.1685 2.3027L18.7859 0.711453C18.6815 0.294953 18.3072 0.00195312 17.8769 0.00195312H14.1274C13.6972 0.00195312 13.3228 0.294891 13.2184 0.711453L12.8358 2.3027C11.3253 2.6487 9.88997 3.24464 8.55534 4.07764L7.20147 3.2712C6.83259 3.05145 6.36203 3.11102 6.05903 3.41402L3.41609 6.05677C3.11309 6.35977 3.05359 6.83027 3.27328 7.1992L4.07972 8.55308C3.24672 9.8877 2.65078 11.3231 2.30478 12.8335L0.713528 13.2161C0.297028 13.3205 0.00402832 13.6949 0.00402832 14.1251V17.8746C0.00402832 18.3049 0.296966 18.6802 0.714403 18.7836L2.30565 19.1663C2.53634 20.1671 2.88353 21.1287 3.3294 22.051C4.01784 21.3597 7.47547 17.8873 7.72397 17.6391C7.71172 17.576 7.57778 16.3753 7.57422 16.1414C7.49447 11.3647 11.3419 7.56433 16.0057 7.56433C20.7015 7.56433 24.4459 11.3507 24.4282 16.0291C24.4081 20.3558 21.1788 24.0392 16.6685 24.3761C16.4734 24.3911 15.5913 24.5212 14.3617 24.2788L9.96228 28.6783C10.881 29.1215 11.839 29.4664 12.8357 29.6962L13.2183 31.2884C13.3227 31.7049 13.6971 31.9979 14.1273 31.9979H17.8768C18.3071 31.9979 18.6815 31.705 18.7858 31.2884L19.1685 29.6971C20.6789 29.3511 22.1143 28.7552 23.4489 27.9222L24.8028 28.7286C25.1698 28.9484 25.6413 28.888 25.9452 28.5858L28.588 25.943C28.891 25.64 28.9505 25.1695 28.7308 24.8006L27.9244 23.4467C28.7583 22.1121 29.3533 20.6767 29.6993 19.1653L31.2897 18.7836C31.7071 18.6802 32 18.3049 32 17.8746V14.1251C32 13.695 31.7072 13.3205 31.2907 13.2162Z" fill="url(#paint1_linear_1_621)"/>
<path d="M22.3449 14.2863C22.2625 13.9635 22.0134 13.7096 21.692 13.6216C21.3709 13.5335 21.0277 13.6253 20.7921 13.8608L18.653 16C17.9219 16.7312 16.7332 16.7312 16.002 16C15.2715 15.2695 15.2715 14.0795 16.002 13.349L18.142 11.209C18.3775 10.9735 18.4684 10.6297 18.3804 10.3086C18.2922 9.98759 18.0387 9.73802 17.716 9.65602C13.7606 8.65084 10.2011 11.2273 9.5483 14.7852C9.33867 15.957 9.43204 17.1241 9.81555 18.1988C9.28217 18.7322 1.0438 26.9705 0.822358 27.192C-0.27708 28.2915 -0.27708 30.0801 0.839733 31.197C1.94611 32.2457 3.64055 32.2898 4.80986 31.1796L13.8031 22.1863C15.2433 22.7003 16.8495 22.6899 18.4213 22.1353C21.2535 21.1359 23.2357 17.782 22.3449 14.2863Z" fill="url(#paint2_linear_1_621)"/>
</g>
<defs>
<linearGradient id="paint0_linear_1_621" x1="7.72393" y1="17.6322" x2="7.73837" y2="17.6321" gradientUnits="userSpaceOnUse">
<stop stop-color="#036A35"/>
<stop offset="1" stop-color="#94CC23"/>
</linearGradient>
<linearGradient id="paint1_linear_1_621" x1="-0.0103185" y1="15.9981" x2="32.0134" y2="15.8237" gradientUnits="userSpaceOnUse">
<stop stop-color="#036A35"/>
<stop offset="1" stop-color="#94CC23"/>
</linearGradient>
<linearGradient id="paint2_linear_1_621" x1="-0.0101769" y1="20.716" x2="22.5697" y2="20.593" gradientUnits="userSpaceOnUse">
<stop stop-color="#036A35"/>
<stop offset="1" stop-color="#94CC23"/>
</linearGradient>
<clipPath id="clip0_1_621">
<rect width="32" height="32" fill="white"/>
</clipPath>
</defs>
</svg>
