<svg width="28" height="32" viewBox="0 0 28 32" fill="none" xmlns="http://www.w3.org/2000/svg">
<path d="M26.638 7.34397L14.5454 0.149906C14.2093 -0.0499687 13.7908 -0.0499687 13.4547 0.149906L1.36201 7.34397C1.03882 7.53628 0.840698 7.88466 0.840698 8.26072V12.3674C0.840698 21.017 5.8382 28.9172 13.6149 31.928C13.8624 32.0239 14.1373 32.024 14.3851 31.928C22.1429 28.9247 27.1593 21.0417 27.1593 12.3674V8.26072C27.1593 7.88459 26.9613 7.53628 26.638 7.34397ZM19.2698 13.6031L12.5845 20.2885C12.1679 20.705 11.4926 20.705 11.076 20.2885L8.72976 17.9423C8.3132 17.5258 8.3132 16.8503 8.72976 16.4338C9.14632 16.0173 9.82176 16.0173 10.2383 16.4338L11.8302 18.0257L17.7613 12.0946C18.1778 11.6781 18.8533 11.6781 19.2698 12.0946C19.6864 12.5112 19.6864 13.1866 19.2698 13.6031Z" fill="url(#paint0_linear_1_620)"/>
<defs>
<linearGradient id="paint0_linear_1_620" x1="0.828897" y1="15.9982" x2="27.1705" y2="15.8802" gradientUnits="userSpaceOnUse">
<stop stop-color="#036A35"/>
<stop offset="1" stop-color="#94CC23"/>
</linearGradient>
</defs>
</svg>
